<?xml version="1.0" encoding="UTF-8" standalone="no"?>
<svg
   xmlns:dc="http://purl.org/dc/elements/1.1/"
   xmlns:cc="http://creativecommons.org/ns#"
   xmlns:rdf="http://www.w3.org/1999/02/22-rdf-syntax-ns#"
   xmlns:svg="http://www.w3.org/2000/svg"
   xmlns="http://www.w3.org/2000/svg"
   xmlns:sodipodi="http://sodipodi.sourceforge.net/DTD/sodipodi-0.dtd"
   xmlns:inkscape="http://www.inkscape.org/namespaces/inkscape"
   sodipodi:docname="person.svg"
   inkscape:version="1.0beta2 (2b71d25, 2019-12-03)"
   id="svg4328"
   version="1.1"
   viewBox="0 0 5.8551478 15.138479"
   height="15.138479mm"
   width="5.8551478mm">
  <defs
     id="defs4322" />
  <sodipodi:namedview
     inkscape:window-maximized="0"
     inkscape:window-y="708"
     inkscape:window-x="1440"
     inkscape:window-height="1387"
     inkscape:window-width="2560"
     fit-margin-bottom="0"
     fit-margin-right="0"
     fit-margin-left="0"
     fit-margin-top="0"
     showgrid="false"
     inkscape:document-rotation="0"
     inkscape:current-layer="layer1"
     inkscape:document-units="mm"
     inkscape:cy="-16.005525"
     inkscape:cx="143.76012"
     inkscape:zoom="3.959798"
     inkscape:pageshadow="2"
     inkscape:pageopacity="0.0"
     borderopacity="1.0"
     bordercolor="#666666"
     pagecolor="#ffffff"
     id="base" />
  <metadata
     id="metadata4325">
    <rdf:RDF>
      <cc:Work
         rdf:about="">
        <dc:format>image/svg+xml</dc:format>
        <dc:type
           rdf:resource="http://purl.org/dc/dcmitype/StillImage" />
        <dc:title></dc:title>
      </cc:Work>
    </rdf:RDF>
  </metadata>
  <g
     transform="translate(-43.941473,-103.55576)"
     id="layer1"
     inkscape:groupmode="layer"
     inkscape:label="Layer 1">
    <g
       style="fill:#adb6b6;fill-opacity:1;stroke:none;stroke-opacity:1"
       transform="matrix(0.03061738,0,0,0.03074386,37.728227,102.09266)"
       id="g3739">
      <title
         id="title3733">Layer 1</title>
      <path
         style="fill:#adb6b6;fill-opacity:1;stroke:none;stroke-opacity:1"
         inkscape:connector-curvature="0"
         d="M 302.80301,90.423897"
         id="path2457" />
      <g
         style="fill:#adb6b6;fill-opacity:1;stroke:none;stroke-opacity:1"
         id="svg_1">
        <path
           style="fill:#adb6b6;fill-opacity:1;stroke:none;stroke-opacity:1"
           inkscape:connector-curvature="0"
           d="m 296.80301,129.26001 c 22.55099,0 40.83499,-18.28401 40.83499,-40.836113 0,-22.551003 -18.284,-40.833996 -40.83499,-40.833996 -22.552,0 -40.83402,18.282993 -40.83402,40.833996 0,22.552103 18.28202,40.836113 40.83402,40.836113 z"
           id="path2455" />
        <path
           style="fill:#adb6b6;fill-opacity:1;stroke:none;stroke-opacity:1"
           inkscape:connector-curvature="0"
           d="m 255.105,138.27299 c -28.918,0 -52.17299,23.584 -52.17299,53 v 125.37502 c 0,24.375 35.67299,24.375 35.67299,0 V 202.006 h 8.444 v 313.90702 c 0,32.58899 47.503,31.63001 47.503,0 V 333.69299 h 8.18201 v 182.22003 c 0,31.63001 47.76498,32.58899 47.76498,0 V 202.006 h 8.24701 v 114.64201 c 0,24.56198 35.487,24.56198 35.422,0 V 192.02299 c 0,-27.125 -21.064,-53.694 -52.814,-53.694 z"
           id="path2459" />
      </g>
    </g>
  </g>
</svg>
